<svg width="96" height="96" xmlns="http://www.w3.org/2000/svg" xmlns:xlink="http://www.w3.org/1999/xlink" xml:space="preserve" overflow="hidden"><defs><clipPath id="clip0"><rect x="451" y="395" width="96" height="96"/></clipPath></defs><g clip-path="url(#clip0)" transform="translate(-451 -395)"><path d="M499.658 430.155C495.412 430.167 491.339 428.479 488.345 425.468L478.705 415.829 484.362 410.171 494 419.812C497.124 422.936 502.189 422.936 505.313 419.812L514.953 410.171 520.61 415.829 510.97 425.469C507.976 428.478 503.903 430.166 499.658 430.155Z" stroke="#FFFF00"/><path d="M514.955 475.829 505.315 466.188C502.191 463.064 497.126 463.064 494.002 466.188L484.362 475.829 478.705 470.171 488.345 460.531C494.593 454.283 504.724 454.283 510.972 460.531L520.612 470.17Z" stroke="#FFFF00"/><path d="M526.177 463.954 516.537 454.314C510.299 448.061 510.299 437.939 516.537 431.686L526.177 422.046 531.835 427.7 522.194 437.34C519.075 440.466 519.075 445.527 522.194 448.654L531.835 458.294Z" stroke="#FFFF00"/><path d="M471.835 463.954 466.177 458.3 475.817 448.66C478.937 445.534 478.937 440.472 475.817 437.346L466.177 427.706 471.835 422.049 481.475 431.689C487.712 437.942 487.712 448.063 481.475 454.316Z" stroke="#FFFF00"/></g></svg>